<?xml version="1.0" encoding="UTF-8"?>
<svg id="Layer_2" data-name="Layer 2" xmlns="http://www.w3.org/2000/svg" viewBox="0 0 140.43 139.66">
  <defs>
    <style>
      .cls-1 {
        fill: #0054a1;
      }

      .cls-2 {
        fill: #2a9afe;
      }
    </style>
  </defs>
  <g id="Layer_1-2" data-name="Layer 1">
    <g>
      <g>
        <path class="cls-1" d="M44.85,33.19c0-2.05,0-2.43-.03-2.86-.03-.46-.14-.68-.58-.77-.11-.03-.34-.04-.53-.04-.15,0-.23-.03-.23-.12s.09-.12,.3-.12c.72,0,1.57,.04,1.84,.04,.66,0,1.19-.04,1.65-.04,2.44,0,2.87,1.31,2.87,2.02,0,1.11-.63,1.77-1.38,2.36,1.11,.38,2.46,1.34,2.46,2.92,0,1.44-1.12,2.94-3.6,2.94-.16,0-.55-.03-.94-.04-.4-.03-.81-.04-1.01-.04-.15,0-.45,0-.77,.01-.31,0-.66,.03-.93,.03-.18,0-.27-.04-.27-.13,0-.07,.05-.11,.22-.11,.2,0,.36-.03,.49-.05,.27-.05,.34-.35,.39-.74,.07-.57,.07-1.63,.07-2.87v-2.37Zm1.62,.23c0,.11,.04,.14,.09,.15,.12,.03,.32,.04,.63,.04,.45,0,.74-.05,.97-.26,.35-.28,.55-.77,.55-1.43,0-.9-.53-2.09-1.69-2.09-.19,0-.31,0-.45,.03-.09,.03-.12,.08-.12,.23v3.33Zm1.78,1.08c-.28-.2-.59-.3-1.12-.32-.24-.01-.38-.01-.58-.01-.05,0-.08,.03-.08,.09v3.2c0,.89,.04,1.12,.47,1.3,.36,.15,.67,.16,.99,.16,.61,0,1.63-.32,1.63-1.73,0-.84-.28-1.97-1.31-2.69Z"/>
        <path class="cls-1" d="M52.77,34.12c0-1.74,0-2.06-.01-2.43-.03-.39-.14-.51-.51-.62-.09-.03-.3-.04-.47-.04-.12,0-.2-.04-.2-.12s.09-.11,.27-.11c.62,0,1.38,.03,1.71,.03,.38,0,3.01,.01,3.24,0,.22-.01,.4-.05,.5-.07,.07-.01,.13-.05,.19-.05,.07,0,.08,.05,.08,.11,0,.08-.07,.22-.09,.74-.01,.12-.04,.62-.07,.76-.01,.05-.04,.19-.13,.19-.08,0-.09-.05-.09-.15,0-.08-.01-.28-.08-.42-.09-.2-.19-.36-.78-.42-.2-.03-1.62-.05-1.86-.05-.05,0-.08,.04-.08,.11v2.83c0,.07,.01,.12,.08,.12,.27,0,1.81,0,2.08-.03,.28-.03,.46-.05,.57-.18,.09-.08,.14-.15,.19-.15s.09,.05,.09,.12-.03,.26-.09,.84c-.03,.23-.05,.69-.05,.77,0,.09-.01,.26-.12,.26-.08,0-.11-.04-.11-.09-.01-.12-.01-.27-.04-.42-.07-.23-.22-.4-.66-.45-.22-.03-1.57-.05-1.86-.05-.05,0-.07,.05-.07,.12v.92c0,.39-.01,1.36,0,1.7,.03,.78,.39,.96,1.61,.96,.31,0,.81-.01,1.12-.15,.3-.13,.43-.38,.51-.85,.03-.12,.05-.18,.14-.18,.09,0,.11,.15,.11,.27,0,.26-.09,1.04-.16,1.27-.08,.3-.19,.3-.63,.3-.89,0-1.61-.01-2.19-.04-.58-.01-1.03-.03-1.38-.03-.13,0-.39,.01-.67,.01-.28,.01-.58,.03-.82,.03-.15,0-.23-.04-.23-.12,0-.05,.04-.12,.19-.12,.18,0,.31-.01,.42-.04,.24-.05,.31-.27,.35-.61,.05-.49,.05-1.39,.05-2.44v-2.02Z"/>
        <path class="cls-1" d="M61.82,36.49c0-.62-.11-.86-.27-1.2-.08-.18-1.7-2.7-2.12-3.31-.3-.42-.54-.69-.77-.81-.15-.08-.35-.15-.5-.15-.09,0-.18-.04-.18-.12s.08-.11,.23-.11c.2,0,1.09,.03,1.48,.03,.26,0,.81-.03,1.35-.03,.11,0,.18,.03,.18,.11,0,.09-.08,.09-.27,.15-.09,.03-.16,.08-.16,.18s.05,.23,.15,.39c.22,.35,1.77,3.04,1.97,3.36,.15-.27,1.59-2.73,1.77-3.08,.12-.26,.18-.46,.18-.61,0-.11-.05-.22-.26-.26-.11-.03-.22-.04-.22-.13,0-.08,.07-.11,.2-.11,.39,0,.81,.03,1.16,.03,.26,0,1.04-.03,1.27-.03,.14,0,.22,.03,.22,.09,0,.08-.09,.14-.23,.14-.12,0-.34,.05-.51,.14-.26,.12-.36,.23-.62,.54-.39,.46-2.09,3.19-2.31,3.67-.18,.42-.15,.77-.15,1.15v.92c0,.19,0,.66,.03,1.15,.03,.34,.14,.55,.49,.61,.18,.03,.43,.04,.59,.04,.13,0,.2,.07,.2,.12,0,.08-.09,.12-.26,.12-.74,0-1.54-.04-1.86-.04-.3,0-1.09,.04-1.54,.04-.16,0-.26-.03-.26-.12,0-.05,.05-.12,.19-.12,.16,0,.31-.01,.42-.04,.24-.05,.34-.27,.36-.61,.04-.49,.04-.96,.04-1.15v-.94Z"/>
        <path class="cls-1" d="M66.39,35.13c0-1.96,1.38-4.49,4.98-4.49,3,0,4.86,1.66,4.86,4.29s-1.92,4.7-4.98,4.7c-3.45,0-4.86-2.46-4.86-4.49Zm8.07,.22c0-2.54-1.52-4.1-3.44-4.1-1.32,0-2.87,.7-2.87,3.54,0,2.36,1.35,4.22,3.59,4.22,.84,0,2.73-.39,2.73-3.66Z"/>
        <path class="cls-1" d="M78.77,37.91c.03,.89,.17,1.16,.4,1.24,.2,.07,.43,.08,.62,.08,.13,0,.2,.05,.2,.12,0,.09-.11,.12-.27,.12-.77,0-1.32-.04-1.54-.04-.11,0-.67,.04-1.28,.04-.16,0-.27-.01-.27-.12,0-.07,.08-.12,.19-.12,.16,0,.38-.01,.54-.05,.31-.08,.35-.39,.36-1.39l.11-6.8c0-.23,.08-.39,.2-.39,.15,0,.31,.18,.51,.38,.15,.15,1.93,1.97,3.66,3.66,.81,.8,2.39,2.42,2.56,2.58h.06l-.12-5.1c-.01-.7-.12-.9-.41-1.01-.17-.07-.46-.07-.62-.07-.15,0-.19-.05-.19-.12,0-.09,.12-.11,.3-.11,.62,0,1.25,.03,1.51,.03,.13,0,.58-.03,1.16-.03,.16,0,.27,.01,.27,.11,0,.07-.07,.12-.2,.12-.12,0-.22,0-.36,.04-.32,.09-.42,.3-.43,.94l-.13,7.23c0,.26-.09,.36-.19,.36-.2,0-.36-.12-.49-.24-.74-.69-2.23-2.11-3.47-3.31-1.29-1.24-2.55-2.63-2.78-2.83h-.04l.14,4.68Z"/>
        <path class="cls-1" d="M88.57,34.12c0-1.74,0-2.06-.01-2.43-.03-.39-.13-.51-.51-.62-.09-.03-.3-.04-.47-.04-.12,0-.2-.04-.2-.12s.1-.11,.27-.11c.62,0,1.38,.03,1.71,.03,.36,0,1.21-.03,1.93-.03,1.48,0,3.48,0,4.78,1.31,.59,.59,1.12,1.55,1.12,2.92,0,1.44-.62,2.54-1.29,3.2-.54,.54-1.8,1.35-3.98,1.35-.43,0-.94-.04-1.42-.07-.47-.04-.9-.07-1.2-.07-.13,0-.39,.01-.67,.01-.28,.01-.58,.03-.82,.03-.15,0-.23-.04-.23-.12,0-.05,.04-.12,.19-.12,.17,0,.31-.01,.42-.04,.24-.05,.31-.27,.35-.61,.05-.49,.05-1.39,.05-2.44v-2.02Zm1.59,1.27c0,1.22,.01,2.09,.03,2.32,.01,.28,.04,.69,.13,.81,.15,.22,.62,.46,1.55,.46,1.08,0,1.88-.19,2.59-.78,.77-.63,1.01-1.66,1.01-2.85,0-1.46-.58-2.4-1.11-2.86-1.09-.97-2.39-1.09-3.32-1.09-.24,0-.63,.03-.73,.08-.11,.04-.15,.09-.15,.23-.01,.39-.01,1.34-.01,2.24v1.44Z"/>
        <path class="cls-1" d="M47.54,52.14c-.07,0-.09,.03-.12,.11l-.73,1.93c-.14,.34-.2,.66-.2,.82,0,.24,.12,.42,.54,.42h.2c.16,0,.2,.03,.2,.11,0,.11-.08,.13-.23,.13-.43,0-1.01-.04-1.43-.04-.15,0-.89,.04-1.59,.04-.18,0-.26-.03-.26-.13,0-.08,.05-.11,.16-.11,.12,0,.31-.01,.42-.03,.62-.08,.88-.54,1.15-1.21l3.39-8.48c.16-.39,.24-.54,.38-.54,.12,0,.2,.12,.34,.43,.32,.74,2.48,6.25,3.35,8.3,.51,1.21,.9,1.4,1.19,1.47,.2,.04,.4,.05,.57,.05,.11,0,.18,.01,.18,.11,0,.11-.12,.13-.62,.13s-1.47,0-2.55-.03c-.24-.01-.4-.01-.4-.11,0-.08,.05-.11,.19-.12,.09-.03,.19-.15,.12-.31l-1.08-2.86c-.03-.07-.07-.09-.14-.09h-3.01Zm2.75-.67c.07,0,.08-.04,.07-.08l-1.22-3.33c-.01-.05-.03-.12-.07-.12s-.07,.07-.08,.12l-1.24,3.32c-.01,.05,0,.09,.05,.09h2.48Z"/>
        <path class="cls-1" d="M55.9,50.3c0-1.74,0-2.06-.01-2.43-.03-.39-.14-.51-.51-.62-.09-.03-.3-.04-.47-.04-.12,0-.2-.04-.2-.12s.09-.11,.27-.11c.62,0,1.38,.03,1.61,.03,.59,0,1.38-.03,1.78-.03,2.15,0,2.52,1.11,2.52,1.71,0,.89-.66,1.58-1.34,2.01,.97,.31,2.19,1.13,2.19,2.48,0,1.23-.97,2.5-3.16,2.5-.13,0-.54-.01-.94-.04-.4-.01-.82-.03-1.01-.03-.13,0-.39,.01-.67,.01-.28,.01-.58,.03-.82,.03-.15,0-.23-.04-.23-.12,0-.05,.04-.12,.19-.12,.18,0,.31-.01,.42-.04,.24-.05,.31-.27,.35-.61,.05-.49,.05-1.39,.05-2.44v-2.02Zm1.54,.19c0,.09,.04,.11,.08,.12,.11,.03,.28,.04,.55,.04,.39,0,.73-.04,.93-.2,.31-.24,.54-.66,.54-1.21,0-.77-.46-1.73-1.48-1.73-.16,0-.39,0-.51,.03-.08,.01-.11,.07-.11,.19v2.77Zm0,3.37c0,.76,.04,.99,.42,1.13,.31,.12,.58,.14,.85,.14,.63,0,1.46-.35,1.46-1.62,0-.53-.23-1.43-1.12-2.04-.24-.18-.57-.3-1.03-.3h-.51s-.07,.01-.07,.08v2.6Z"/>
        <path class="cls-1" d="M63.72,50.3c0-1.74,0-2.06-.01-2.43-.03-.39-.15-.53-.4-.61-.14-.04-.28-.05-.43-.05-.12,0-.19-.03-.19-.14,0-.07,.09-.09,.28-.09,.45,0,1.26,.03,1.59,.03,.3,0,1.07-.03,1.52-.03,.15,0,.24,.03,.24,.09,0,.11-.07,.14-.19,.14s-.22,.01-.35,.04c-.32,.05-.42,.22-.45,.62-.03,.36-.03,.69-.03,2.43v2.02c0,1.11,0,2.02,.05,2.51,.04,.31,.12,.49,.47,.54,.16,.03,.43,.04,.61,.04,.13,0,.19,.07,.19,.12,0,.08-.1,.12-.23,.12-.78,0-1.59-.04-1.92-.04-.27,0-1.08,.04-1.55,.04-.15,0-.23-.04-.23-.12,0-.05,.04-.12,.19-.12,.18,0,.31-.01,.42-.04,.24-.05,.31-.22,.35-.55,.05-.47,.05-1.39,.05-2.5v-2.02Z"/>
        <path class="cls-1" d="M70.53,52.32c0,1.47,0,2.2,.26,2.42,.2,.18,.66,.24,1.58,.24,.63,0,1.09-.01,1.39-.32,.15-.15,.27-.47,.3-.69,.01-.11,.04-.18,.13-.18,.08,0,.11,.12,.11,.26s-.08,.99-.17,1.32c-.08,.26-.13,.31-.76,.31-.85,0-1.54-.01-2.13-.04-.59-.01-1.09-.03-1.58-.03-.14,0-.39,.01-.68,.01-.28,.01-.58,.03-.82,.03-.15,0-.23-.04-.23-.12,0-.05,.04-.12,.19-.12,.18,0,.31-.01,.42-.04,.24-.05,.31-.27,.35-.61,.05-.49,.05-1.39,.05-2.44v-2.02c0-1.74,0-2.06-.01-2.43-.03-.39-.14-.51-.51-.62-.09-.03-.24-.04-.39-.04-.13,0-.2-.04-.2-.12s.08-.11,.26-.11c.55,0,1.31,.03,1.63,.03,.28,0,1.26-.03,1.71-.03,.18,0,.26,.03,.26,.11s-.07,.12-.22,.12c-.14,0-.32,.01-.46,.04-.32,.05-.42,.22-.45,.62-.03,.36-.03,.69-.03,2.43v2.02Z"/>
        <path class="cls-1" d="M76.12,50.3c0-1.74,0-2.06-.01-2.43-.03-.39-.15-.53-.4-.61-.13-.04-.28-.05-.43-.05-.12,0-.19-.03-.19-.14,0-.07,.09-.09,.28-.09,.45,0,1.26,.03,1.59,.03,.3,0,1.07-.03,1.52-.03,.15,0,.24,.03,.24,.09,0,.11-.07,.14-.19,.14s-.21,.01-.35,.04c-.32,.05-.42,.22-.45,.62-.03,.36-.03,.69-.03,2.43v2.02c0,1.11,0,2.02,.06,2.51,.04,.31,.12,.49,.47,.54,.16,.03,.43,.04,.61,.04,.14,0,.19,.07,.19,.12,0,.08-.09,.12-.23,.12-.78,0-1.59-.04-1.92-.04-.27,0-1.08,.04-1.55,.04-.15,0-.23-.04-.23-.12,0-.05,.04-.12,.19-.12,.17,0,.31-.01,.42-.04,.24-.05,.31-.22,.35-.55,.05-.47,.05-1.39,.05-2.5v-2.02Z"/>
        <path class="cls-1" d="M82.91,47.68l-1.77,.04c-.69,.01-.97,.09-1.15,.35-.12,.16-.17,.31-.2,.39-.03,.09-.06,.15-.14,.15s-.11-.07-.11-.19c0-.19,.23-1.3,.26-1.39,.03-.15,.07-.22,.14-.22,.09,0,.22,.09,.51,.14,.35,.04,.8,.05,1.19,.05h4.82c.38,0,.63-.03,.81-.05,.19-.03,.28-.05,.32-.05,.08,0,.09,.07,.09,.24,0,.24-.03,1.09-.03,1.39-.01,.12-.04,.19-.11,.19-.1,0-.12-.05-.14-.23v-.12c-.04-.3-.35-.65-1.42-.66l-1.5-.03v4.64c0,1.05,.01,1.96,.07,2.46,.04,.32,.11,.54,.46,.59,.16,.03,.43,.04,.61,.04,.13,0,.19,.07,.19,.12,0,.08-.1,.12-.23,.12-.78,0-1.58-.04-1.92-.04-.27,0-1.08,.04-1.55,.04-.15,0-.23-.04-.23-.12,0-.05,.04-.12,.19-.12,.18,0,.32-.01,.42-.04,.24-.05,.31-.27,.35-.61,.05-.49,.05-1.39,.05-2.44v-4.64Z"/>
        <path class="cls-1" d="M90.95,52.68c0-.62-.11-.86-.27-1.2-.08-.18-1.7-2.7-2.12-3.31-.3-.42-.54-.69-.77-.81-.15-.08-.35-.15-.5-.15-.09,0-.18-.04-.18-.12s.08-.11,.23-.11c.2,0,1.09,.03,1.48,.03,.26,0,.81-.03,1.35-.03,.11,0,.17,.03,.17,.11,0,.09-.08,.09-.27,.15-.09,.03-.16,.08-.16,.18s.05,.23,.15,.39c.21,.35,1.77,3.04,1.97,3.36,.15-.27,1.59-2.73,1.77-3.08,.12-.26,.18-.46,.18-.61,0-.11-.05-.22-.26-.26-.11-.03-.22-.04-.22-.13,0-.08,.07-.11,.2-.11,.39,0,.81,.03,1.16,.03,.26,0,1.04-.03,1.27-.03,.13,0,.22,.03,.22,.09,0,.08-.1,.14-.23,.14-.12,0-.34,.05-.51,.14-.26,.12-.36,.23-.62,.54-.39,.46-2.09,3.19-2.31,3.67-.18,.42-.15,.77-.15,1.15v.92c0,.19,0,.66,.03,1.15,.03,.34,.13,.55,.49,.61,.17,.03,.43,.04,.59,.04,.13,0,.2,.07,.2,.12,0,.08-.09,.12-.26,.12-.74,0-1.54-.04-1.86-.04-.3,0-1.09,.04-1.54,.04-.16,0-.26-.03-.26-.12,0-.05,.05-.12,.19-.12,.16,0,.31-.01,.42-.04,.24-.05,.34-.27,.36-.61,.04-.49,.04-.96,.04-1.15v-.94Z"/>
        <path class="cls-1" d="M40.65,65.55c0-2.05,0-2.43-.03-2.86-.03-.46-.14-.68-.58-.77-.11-.03-.34-.04-.53-.04-.15,0-.23-.03-.23-.12s.09-.12,.3-.12c.72,0,1.57,.04,1.84,.04,.66,0,1.19-.04,1.65-.04,2.44,0,2.87,1.31,2.87,2.02,0,1.11-.63,1.77-1.38,2.36,1.11,.38,2.46,1.34,2.46,2.92,0,1.44-1.12,2.94-3.6,2.94-.16,0-.55-.03-.94-.04-.4-.03-.81-.04-1.01-.04-.15,0-.45,0-.77,.01-.31,0-.66,.03-.93,.03-.18,0-.27-.04-.27-.13,0-.07,.05-.11,.22-.11,.2,0,.36-.03,.49-.05,.27-.05,.34-.35,.39-.74,.07-.57,.07-1.63,.07-2.87v-2.37Zm1.62,.23c0,.11,.04,.14,.09,.15,.12,.03,.32,.04,.63,.04,.45,0,.74-.05,.97-.26,.35-.28,.55-.77,.55-1.43,0-.9-.53-2.09-1.69-2.09-.19,0-.31,0-.45,.03-.09,.03-.12,.08-.12,.23v3.33Zm1.78,1.08c-.28-.2-.59-.3-1.12-.32-.24-.01-.38-.01-.58-.01-.05,0-.08,.03-.08,.09v3.2c0,.89,.04,1.12,.47,1.3,.36,.15,.67,.16,.99,.16,.61,0,1.63-.32,1.63-1.73,0-.84-.28-1.97-1.31-2.69Z"/>
        <path class="cls-1" d="M49.76,68.95c-.07,0-.08,.01-.11,.08l-.63,1.54c-.12,.28-.18,.57-.18,.7,0,.2,.11,.32,.47,.32h.18c.15,0,.18,.05,.18,.12,0,.09-.07,.12-.19,.12-.39,0-.94-.04-1.32-.04-.12,0-.76,.04-1.38,.04-.15,0-.22-.03-.22-.12,0-.07,.04-.12,.14-.12,.11,0,.24-.01,.35-.01,.54-.08,.74-.43,.99-1.01l3.1-7.22c.14-.32,.23-.46,.35-.46,.18,0,.23,.11,.35,.36,.28,.63,2.27,5.33,3.02,7.07,.46,1.04,.8,1.19,1.01,1.23,.18,.03,.31,.04,.45,.04,.11,0,.16,.04,.16,.12,0,.09-.07,.12-.51,.12-.42,0-1.28,0-2.28-.03-.22-.01-.35-.01-.35-.09,0-.07,.03-.11,.15-.12,.08-.01,.16-.12,.11-.26l-.92-2.31c-.03-.07-.07-.08-.12-.08h-2.79Zm2.54-.63c.05,0,.07-.03,.05-.07l-1.12-2.92s-.03-.11-.05-.11c-.04,0-.05,.07-.07,.11l-1.15,2.9c-.03,.05,0,.08,.04,.08h2.29Z"/>
        <path class="cls-1" d="M57.5,66.48c0-1.74,0-2.06-.01-2.43-.03-.39-.14-.51-.51-.62-.09-.03-.3-.04-.47-.04-.12,0-.2-.04-.2-.12s.09-.11,.27-.11c.62,0,1.38,.03,1.62,.03,.4,0,1.48-.03,1.85-.03,.76,0,1.62,.07,2.25,.49,.34,.23,.84,.81,.84,1.58,0,.85-.49,1.61-1.65,2.54,1.05,1.3,1.89,2.33,2.6,3.05,.66,.66,1.08,.72,1.27,.76,.12,.03,.19,.03,.28,.03s.15,.07,.15,.12c0,.09-.08,.12-.23,.12h-1.13c-.66,0-.99-.07-1.3-.23-.51-.26-.96-.8-1.62-1.69-.47-.62-.97-1.39-1.12-1.57-.07-.07-.14-.08-.22-.08l-1.07-.03c-.05,0-.09,.03-.09,.09v.16c0,1.07,.01,1.96,.07,2.44,.04,.34,.09,.55,.46,.61,.18,.03,.43,.04,.58,.04,.09,0,.15,.07,.15,.12,0,.08-.09,.12-.24,.12-.69,0-1.67-.04-1.85-.04-.23,0-.99,.04-1.46,.04-.15,0-.23-.04-.23-.12,0-.05,.04-.12,.19-.12,.18,0,.31-.01,.42-.04,.24-.05,.31-.27,.35-.61,.05-.49,.05-1.39,.05-2.44v-2.02Zm1.51,.89c0,.12,.03,.16,.11,.2,.26,.08,.61,.11,.9,.11,.47,0,.63-.04,.84-.19,.36-.26,.77-.76,.77-1.7,0-1.62-1.11-2.04-1.81-2.04-.3,0-.58,.01-.7,.04-.08,.03-.11,.07-.11,.16v3.41Z"/>
        <path class="cls-1" d="M66.48,66.48c0-1.74,0-2.06-.01-2.43-.03-.39-.14-.51-.51-.62-.09-.03-.3-.04-.47-.04-.12,0-.2-.04-.2-.12s.09-.11,.27-.11c.62,0,1.38,.03,1.62,.03,.4,0,1.48-.03,1.85-.03,.76,0,1.62,.07,2.25,.49,.34,.23,.84,.81,.84,1.58,0,.85-.49,1.61-1.65,2.54,1.05,1.3,1.89,2.33,2.6,3.05,.66,.66,1.08,.72,1.27,.76,.12,.03,.19,.03,.28,.03s.15,.07,.15,.12c0,.09-.08,.12-.23,.12h-1.13c-.66,0-.99-.07-1.3-.23-.51-.26-.96-.8-1.62-1.69-.47-.62-.97-1.39-1.12-1.57-.07-.07-.14-.08-.22-.08l-1.07-.03c-.05,0-.09,.03-.09,.09v.16c0,1.07,.01,1.96,.07,2.44,.04,.34,.1,.55,.46,.61,.17,.03,.43,.04,.58,.04,.09,0,.15,.07,.15,.12,0,.08-.1,.12-.24,.12-.69,0-1.67-.04-1.85-.04-.23,0-.99,.04-1.46,.04-.15,0-.23-.04-.23-.12,0-.05,.04-.12,.19-.12,.18,0,.31-.01,.42-.04,.24-.05,.31-.27,.35-.61,.05-.49,.05-1.39,.05-2.44v-2.02Zm1.51,.89c0,.12,.03,.16,.11,.2,.26,.08,.61,.11,.9,.11,.47,0,.63-.04,.84-.19,.36-.26,.77-.76,.77-1.7,0-1.62-1.11-2.04-1.81-2.04-.3,0-.58,.01-.7,.04-.08,.03-.11,.07-.11,.16v3.41Z"/>
        <path class="cls-1" d="M75.46,66.48c0-1.74,0-2.06-.01-2.43-.03-.39-.15-.53-.4-.61-.13-.04-.28-.05-.43-.05-.12,0-.19-.03-.19-.14,0-.07,.1-.09,.28-.09,.45,0,1.25,.03,1.59,.03,.3,0,1.07-.03,1.52-.03,.15,0,.24,.03,.24,.09,0,.11-.07,.14-.19,.14s-.21,.01-.35,.04c-.32,.05-.42,.22-.45,.62-.03,.36-.03,.69-.03,2.43v2.02c0,1.11,0,2.02,.05,2.51,.04,.31,.12,.49,.47,.54,.16,.03,.43,.04,.61,.04,.13,0,.19,.07,.19,.12,0,.08-.1,.12-.23,.12-.78,0-1.59-.04-1.92-.04-.27,0-1.08,.04-1.55,.04-.15,0-.23-.04-.23-.12,0-.05,.04-.12,.19-.12,.18,0,.31-.01,.42-.04,.24-.05,.31-.22,.35-.55,.05-.47,.05-1.39,.05-2.5v-2.02Z"/>
        <path class="cls-1" d="M80.68,66.48c0-1.74,0-2.06-.01-2.43-.03-.39-.13-.51-.51-.62-.09-.03-.3-.04-.47-.04-.12,0-.2-.04-.2-.12s.09-.11,.27-.11c.62,0,1.38,.03,1.71,.03,.38,0,3.01,.01,3.24,0,.22-.01,.4-.05,.5-.07,.07-.01,.13-.05,.19-.05,.07,0,.08,.05,.08,.11,0,.08-.07,.22-.09,.74-.01,.12-.04,.62-.07,.76-.01,.05-.04,.19-.13,.19-.08,0-.1-.05-.1-.15,0-.08-.01-.28-.08-.42-.09-.2-.19-.36-.78-.42-.2-.03-1.62-.05-1.86-.05-.05,0-.08,.04-.08,.11v2.83c0,.07,.01,.12,.08,.12,.27,0,1.81,0,2.08-.03,.28-.03,.46-.05,.57-.18,.1-.08,.14-.15,.19-.15s.1,.05,.1,.12-.03,.26-.1,.84c-.03,.23-.05,.69-.05,.77,0,.09-.01,.26-.12,.26-.08,0-.11-.04-.11-.09-.01-.12-.01-.27-.04-.42-.07-.23-.22-.4-.66-.45-.22-.03-1.57-.05-1.86-.05-.06,0-.07,.05-.07,.12v.92c0,.39-.01,1.36,0,1.7,.03,.78,.39,.96,1.61,.96,.31,0,.81-.01,1.12-.15,.3-.13,.43-.38,.51-.85,.03-.12,.05-.18,.14-.18,.09,0,.11,.15,.11,.27,0,.26-.1,1.04-.16,1.27-.08,.3-.19,.3-.63,.3-.89,0-1.61-.01-2.19-.04-.58-.01-1.02-.03-1.38-.03-.13,0-.39,.01-.67,.01-.28,.01-.58,.03-.82,.03-.15,0-.23-.04-.23-.12,0-.05,.04-.12,.19-.12,.18,0,.31-.01,.42-.04,.24-.05,.31-.27,.35-.61,.05-.49,.05-1.39,.05-2.44v-2.02Z"/>
        <path class="cls-1" d="M87.91,66.48c0-1.74,0-2.06-.01-2.43-.03-.39-.13-.51-.51-.62-.09-.03-.3-.04-.47-.04-.12,0-.2-.04-.2-.12s.09-.11,.27-.11c.62,0,1.38,.03,1.62,.03,.4,0,1.49-.03,1.85-.03,.75,0,1.62,.07,2.25,.49,.34,.23,.84,.81,.84,1.58,0,.85-.49,1.61-1.65,2.54,1.05,1.3,1.89,2.33,2.6,3.05,.66,.66,1.08,.72,1.27,.76,.12,.03,.19,.03,.28,.03s.15,.07,.15,.12c0,.09-.08,.12-.23,.12h-1.13c-.66,0-.99-.07-1.29-.23-.51-.26-.96-.8-1.62-1.69-.47-.62-.97-1.39-1.12-1.57-.07-.07-.13-.08-.22-.08l-1.07-.03c-.05,0-.09,.03-.09,.09v.16c0,1.07,.01,1.96,.07,2.44,.04,.34,.09,.55,.46,.61,.18,.03,.43,.04,.58,.04,.09,0,.15,.07,.15,.12,0,.08-.1,.12-.24,.12-.69,0-1.67-.04-1.85-.04-.23,0-.99,.04-1.46,.04-.15,0-.23-.04-.23-.12,0-.05,.04-.12,.19-.12,.18,0,.31-.01,.42-.04,.24-.05,.31-.27,.35-.61,.05-.49,.05-1.39,.05-2.44v-2.02Zm1.51,.89c0,.12,.03,.16,.11,.2,.26,.08,.61,.11,.9,.11,.47,0,.63-.04,.84-.19,.36-.26,.77-.76,.77-1.7,0-1.62-1.11-2.04-1.81-2.04-.3,0-.58,.01-.7,.04-.08,.03-.11,.07-.11,.16v3.41Z"/>
        <path class="cls-1" d="M96.04,71.69c-.19-.08-.23-.13-.23-.39,0-.62,.05-1.34,.07-1.52,0-.18,.06-.3,.15-.3,.11,0,.12,.11,.12,.19,0,.15,.04,.39,.11,.59,.26,.85,1.15,1.13,1.89,1.13,1.03,0,1.65-.65,1.65-1.46,0-.5-.12-1-1.17-1.62l-.69-.4c-1.4-.82-1.86-1.59-1.86-2.6,0-1.4,1.35-2.31,3-2.31,.77,0,1.38,.11,1.69,.19,.11,.03,.16,.07,.16,.15,0,.15-.04,.47-.04,1.38,0,.24-.05,.36-.15,.36-.08,0-.12-.07-.12-.2,0-.11-.05-.46-.31-.76-.17-.22-.55-.54-1.32-.54-.85,0-1.62,.45-1.62,1.23,0,.51,.19,.92,1.26,1.51l.49,.27c1.56,.86,2.05,1.74,2.05,2.78,0,.85-.32,1.54-1.19,2.15-.57,.4-1.35,.47-1.98,.47-.69,0-1.42-.07-1.93-.3Z"/>
      </g>
      <path class="cls-1" d="M70.11,0c-3.72-.06-7.43,.21-11.1,.83-1.81,.31-3.62,.67-5.4,1.13-1.83,.47-3.66,.94-5.46,1.53-1.89,.63-3.79,1.28-5.58,2.17-1.3,.64-2.65,1.16-3.95,1.8-3.05,1.5-5.93,3.28-8.73,5.2-2.41,1.66-4.71,3.49-6.84,5.49-1.84,1.72-3.62,3.51-5.33,5.36-2.16,2.34-4.07,4.87-5.84,7.52-1.47,2.21-2.84,4.49-4.06,6.85-.43,.82-.77,1.69-1.17,2.53-.29,.62-.66,1.2-.92,1.83-.68,1.68-1.29,3.4-1.94,5.1-.22,.58-.43,1.16-.61,1.74-.73,2.35-1.38,4.73-1.82,7.16-.23,1.32-.57,2.63-.74,3.95-.24,1.88-.42,3.76-.52,5.65-.2,4-.15,8.01,.31,11.99,.08,.65,.09,1.32,.2,1.96,.21,1.21,.51,2.41,.7,3.62,.32,2.08,.86,4.09,1.44,6.11,.85,2.94,1.91,5.83,3.15,8.63,.53,1.19,1.06,2.39,1.67,3.55,.81,1.54,1.7,3.03,2.57,4.54,.45,.77,.92,1.53,1.44,2.26,.8,1.14,1.62,2.26,2.46,3.37,1.02,1.35,2.01,2.74,3.12,4.02,1.95,2.27,4.03,4.41,6.31,6.35,1.77,1.5,3.6,2.93,5.41,4.38,.53,.42,1.08,.82,1.65,1.19,1.37,.88,2.73,1.77,4.14,2.58,1.76,1.01,3.52,2.03,5.35,2.89,1.98,.93,4.02,1.75,6.07,2.49,2.21,.8,4.46,1.51,6.72,2.14,1.7,.47,3.46,.78,5.2,1.09,1.2,.22,2.42,.39,3.63,.54,1.29,.15,1.27,.31,1.49-.46,.15-.53,.33-1.05,.47-1.58,.61-2.3,1.22-4.61,1.83-6.91,.8-2.99,1.6-5.98,2.4-8.97,.39-1.45,.81-2.9,1.14-4.37,.26-1.17,.44-2.37,.57-3.56,.16-1.52-.17-2.99-.6-4.45-.33-1.12-.83-2.14-1.45-3.11-1.34-2.12-3.18-3.76-5.2-5.19-1.45-1.03-3-1.92-4.45-2.95-1.89-1.36-3.76-2.75-5.58-4.2-3.09-2.47-5.86-5.28-8.38-8.33-.96-1.16-1.83-2.39-2.77-3.57-1.55-1.93-2.83-4.04-4.06-6.17-1.33-2.3-2.48-4.69-3.52-7.14-1.42-3.34-2.53-6.77-3.4-10.28-.27-1.07-.63-2.1-1.29-3-.32-.44-.71-.79-1.14-1.05-.49-.3-1.11,.1-1.09,.67,0,0,0,0,0,.01-.63,7,2.46,17.71,3.13,19.86,.25,.81-5.96-11.15-3.2-25.84,.02-.61,.04-1.22,.05-1.82,.01-.66-.18-1.28-.65-1.73-.43-.41-.76,.41-.5-1.4,.03-.19,0-.38,0-.58-.04-1.4-.67-2.51-1.72-3.42-.76-.66-1.66-.79-2.61-.72-1.26,.1-2.01,.92-2.61,1.91-.61,1.01-.72,2.17-.98,3.29-.07,.29-.07,.6-.1,.96,.2-.06,.4-.1,.6-.12,1.05-.34,1.97-.12,2.8,.66,.85,.8,1.26,1.82,1.23,2.95-.04,1.51-.24,3.02-.37,4.53-.07,.77-.24,2.02-.3,2.79-.75,9.81,2.14,17.61,2.14,17.61-3.16-6.36-3.35-13.74-2.73-20.69,.11-1.16,.28-2.35,.48-3.48,.12-.81,0-1.64-.37-2.37-.11-.23-.27-.47-.42-.63-.31-.24-.64-.47-1-.59-.76-.3-1.61-.18-2.35,.16-.51,.38-.95,.86-1.23,1.45-1.15,2.41-2.06,4.91-2.61,7.52-.42,1.98-.77,3.99-.94,6.01-.16,1.96-.19,3.95-.02,5.91,.2,2.4,.63,4.78,1.01,7.16,.25,1.57,.58,3.12,.86,4.69,.41,2.32,.81,4.64,1.22,6.96,.3,1.67,.59,3.34,.94,5,.38,1.79,.78,3.59,1.64,5.24,.73,1.39,1.67,2.62,2.7,3.81,1.43,1.65,3.04,3.09,4.71,4.46,2.03,1.66,4.22,3.13,6.34,4.68,1.59,1.16,3.09,2.41,4.47,3.82,2.52,2.57,4.12,5.89,4.66,9.45,.16,1.05,.26,2.11,.15,3.19-.02,.23,.04,.51-.31,.66-1.77-.97-3.61-1.88-5.28-3.08-1.6-1.15-3.24-2.25-4.79-3.47-2.77-2.16-5.33-4.56-7.68-7.17-1.19-1.32-2.37-2.66-3.44-4.07-1.15-1.52-2.18-3.14-3.25-4.73-.52-.77-1.02-1.55-1.49-2.36-.41-.71-.74-1.46-1.13-2.19-.33-.63-.74-1.22-1.02-1.87-.63-1.46-1.19-2.94-1.8-4.41-1.29-3.1-2.18-6.31-2.9-9.58-.29-1.33-.41-2.71-.7-4.04-.3-1.42-.41-2.86-.52-4.3-.18-2.4-.23-6.32-.1-8.72,.07-1.18,.13-2.37,.29-3.54,.24-1.73,.52-3.47,.87-5.18,.35-1.72,.72-3.43,1.21-5.11,1.04-3.55,2.39-6.99,4.03-10.32,1.85-3.75,4.02-7.28,6.56-10.58,.98-1.28,1.95-2.57,3.06-3.75,1.91-2.04,3.86-4.02,5.98-5.85,.68-.59,1.34-1.22,2.06-1.77,.91-.7,1.86-1.36,2.82-1.99,1.76-1.15,3.53-2.31,5.33-3.39,1.17-.7,2.41-1.29,3.63-1.92,2.1-1.08,4.3-1.94,6.5-2.75,1.59-.58,3.26-.96,4.87-1.47,1.75-.56,3.56-.86,5.37-1.18,1.97-.35,3.94-.69,5.95-.75,1.68-.06,3.36-.2,5.04-.25V.01s-.07,0-.1,0ZM35.77,81.62c-2.03-3.86-11.32-9-12.48-3.74-.02,.14-.33,1.09,.08,2.97,.66,2.66,2.49,5.56,3.56,8.04,.21,.51,1.11,2.99-.23,.78-1.45-2.89-3.48-6.09-4.22-9.04-1.1-4.56,1.3-6,3.99-5.82,1.21-.1,2.37,.21,3.51,.65,2.73,1.06,4.75,3,6.45,5.29,1.19,1.6,2.4,3.21,3.31,4.98,2.55,4.95,7.67,8.42,9.81,8.95l-.02,.22c-6.64-1.28-10.36-8.04-13.75-13.27Z"/>
      <path class="cls-2" d="M70.22,.01V6.47c1.68,.05,3.36,.19,5.04,.25,2.01,.07,3.98,.4,5.95,.75,1.8,.32,3.61,.62,5.37,1.18,1.62,.52,3.28,.89,4.87,1.47,2.21,.81,4.41,1.67,6.5,2.75,1.22,.62,2.46,1.21,3.63,1.92,1.81,1.08,3.57,2.24,5.33,3.39,.96,.63,1.91,1.29,2.82,1.99,.72,.55,1.37,1.18,2.06,1.77,2.11,1.83,4.07,3.81,5.98,5.85,1.11,1.18,2.08,2.47,3.06,3.75,2.54,3.3,4.71,6.84,6.56,10.58,1.64,3.33,2.99,6.76,4.03,10.32,.49,1.68,.87,3.4,1.21,5.11,.35,1.72,.63,3.45,.87,5.18,.16,1.17,.23,2.36,.29,3.54,.13,2.4,.09,6.32-.1,8.72-.11,1.44-.22,2.88-.52,4.3-.28,1.34-.4,2.71-.7,4.04-.72,3.27-1.61,6.48-2.9,9.58-.61,1.47-1.17,2.95-1.8,4.41-.28,.65-.69,1.24-1.02,1.87-.38,.73-.72,1.48-1.13,2.19-.46,.81-.97,1.59-1.49,2.36-1.07,1.59-2.1,3.21-3.25,4.73-1.07,1.42-2.25,2.75-3.44,4.07-2.35,2.61-4.91,5.01-7.68,7.17-1.55,1.21-3.19,2.32-4.79,3.47-1.67,1.2-3.51,2.11-5.28,3.08-.35-.15-.28-.43-.31-.66-.11-1.07,0-2.13,.15-3.19,.54-3.56,2.14-6.87,4.66-9.45,1.38-1.41,2.88-2.66,4.47-3.82,2.12-1.55,4.31-3.02,6.34-4.68,1.67-1.36,3.28-2.81,4.71-4.46,1.03-1.19,1.97-2.42,2.7-3.81,.86-1.65,1.26-3.44,1.64-5.24,.35-1.66,.64-3.33,.94-5,.42-2.32,.81-4.64,1.22-6.96,.28-1.56,.61-3.12,.86-4.69,.38-2.38,.81-4.76,1.01-7.16,.16-1.96,.14-3.95-.02-5.91-.17-2.01-.52-4.02-.94-6.01-.55-2.61-1.46-5.11-2.61-7.52-.28-.59-.71-1.07-1.23-1.45-.74-.35-1.59-.47-2.35-.16-.36,.12-.69,.35-1,.59-.15,.17-.3,.4-.42,.63-.37,.73-.48,1.56-.37,2.37,.2,1.13,.36,2.32,.48,3.48,.62,6.95,.43,14.32-2.73,20.69,0,0,2.89-7.81,2.14-17.61-.06-.77-.24-2.02-.3-2.79-.13-1.51-.32-3.02-.37-4.53-.03-1.13,.38-2.14,1.23-2.95,.82-.78,1.75-1,2.8-.66,.2,.03,.4,.07,.6,.12-.03-.37-.03-.67-.1-.96-.26-1.12-.37-2.28-.98-3.29-.6-.99-1.35-1.81-2.61-1.91-.96-.08-1.85,.06-2.61,.72-1.04,.91-1.67,2.01-1.72,3.42,0,.19-.04,.39,0,.58,.27,1.81-.07,.99-.5,1.4-.47,.45-.66,1.07-.65,1.73,0,.61,.02,1.22,.05,1.82,2.75,14.68-3.45,26.64-3.2,25.84,.67-2.15,3.77-12.86,3.13-19.86,0,0,0,0,0-.01,.03-.58-.59-.97-1.09-.67-.44,.26-.82,.61-1.14,1.05-.66,.9-1.02,1.93-1.29,3-.88,3.51-1.98,6.94-3.4,10.28-1.04,2.45-2.19,4.84-3.52,7.14-1.23,2.13-2.51,4.24-4.06,6.17-.94,1.17-1.81,2.4-2.77,3.57-2.52,3.05-5.29,5.86-8.38,8.33-1.82,1.45-3.68,2.85-5.58,4.2-1.45,1.04-2.99,1.93-4.45,2.95-2.02,1.43-3.86,3.07-5.2,5.19-.62,.97-1.12,1.99-1.45,3.11-.43,1.46-.75,2.93-.6,4.45,.12,1.2,.31,2.39,.57,3.56,.32,1.47,.75,2.92,1.14,4.37,.8,2.99,1.61,5.98,2.4,8.97,.61,2.3,1.22,4.61,1.83,6.91,.14,.53,.32,1.05,.47,1.58,.21,.77,.19,.62,1.49,.46,1.22-.14,2.43-.32,3.63-.54,1.74-.32,3.49-.62,5.2-1.09,2.27-.63,4.51-1.34,6.72-2.14,2.06-.74,4.1-1.56,6.07-2.49,1.83-.86,3.59-1.88,5.35-2.89,1.41-.81,2.77-1.7,4.14-2.58,.57-.37,1.12-.76,1.65-1.19,1.82-1.44,3.64-2.88,5.41-4.38,2.28-1.93,4.36-4.08,6.31-6.35,1.1-1.28,2.1-2.66,3.12-4.02,.84-1.11,1.66-2.23,2.46-3.37,.51-.73,.99-1.49,1.44-2.26,.87-1.5,1.76-3,2.57-4.54,.61-1.15,1.14-2.35,1.67-3.55,1.25-2.8,2.3-5.68,3.15-8.63,.58-2.01,1.12-4.03,1.44-6.11,.19-1.21,.49-2.41,.7-3.62,.11-.65,.12-1.31,.2-1.96,.46-3.99,.51-7.99,.31-11.99-.1-1.89-.28-3.77-.52-5.65-.17-1.33-.5-2.63-.74-3.95-.43-2.43-1.09-4.81-1.82-7.16-.18-.59-.39-1.17-.61-1.74-.65-1.7-1.26-3.41-1.94-5.1-.26-.63-.62-1.22-.92-1.83-.4-.84-.75-1.7-1.17-2.53-1.22-2.36-2.58-4.64-4.06-6.85-1.77-2.65-3.68-5.18-5.84-7.52-1.71-1.85-3.49-3.64-5.33-5.36-2.14-2-4.43-3.83-6.84-5.49-2.8-1.92-5.69-3.7-8.73-5.2-1.3-.64-2.66-1.16-3.95-1.8-1.8-.89-3.69-1.54-5.58-2.17-1.79-.59-3.63-1.06-5.46-1.53-1.78-.46-3.59-.83-5.4-1.13C77.75,.21,74.04-.05,70.32,0c-.03,0-.07,0-.1,0Zm20.7,94.88l-.02-.22c2.14-.54,7.25-4,9.81-8.95,.91-1.77,2.12-3.39,3.31-4.98,1.7-2.28,3.72-4.23,6.45-5.29,1.13-.44,2.29-.75,3.51-.65,2.69-.18,5.09,1.27,3.99,5.82-.73,2.95-2.77,6.15-4.22,9.04-1.33,2.21-.44-.27-.23-.78,1.06-2.48,2.9-5.39,3.56-8.04,.41-1.88,.1-2.82,.08-2.97-1.16-5.26-10.46-.12-12.48,3.74-3.39,5.23-7.11,11.99-13.75,13.27Z"/>
    </g>
  </g>
</svg>